<?xml version="1.0" standalone="no"?>
<!DOCTYPE svg PUBLIC "-//W3C//DTD SVG 1.0//EN" "http://www.w3.org/TR/2001/REC-SVG-20010904/DTD/svg10.dtd">
<svg xmlns="http://www.w3.org/2000/svg" xmlns:xlink="http://www.w3.org/1999/xlink" id="body_1" width="25" height="25">

<g transform="matrix(1.25 0 0 1.25 0 0)">
	<g transform="matrix(0.19607845 0 0 0.19607845 0 0)">
		<g transform="matrix(0.19921875 0 0 0.19921875 0 0)">
			<g>
				<g>
					<g>
                        <path d="M229.222 235.922L26.722 235.922C 23.017 235.922 20.014 232.91899 20.014 229.21399L20.014 229.21399L20.014 26.814C 20.014 23.109 23.017 20.105999 26.722 20.105999L26.722 20.105999L229.222 20.105999C 232.927 20.105999 235.93 23.109 235.93 26.814L235.93 26.814L235.93 229.213C 235.93 232.919 232.927 235.922 229.222 235.922zM33.431 222.506L222.51399 222.506L222.51399 33.522L33.431 33.522L33.431 222.506z" stroke="none" fill="#000000" fill-rule="nonzero" />
					</g>
					<g>
                        <path d="M486.227 492.847L283.729 492.847C 280.02402 492.847 277.02 489.844 277.02 486.13898L277.02 486.13898L277.02 283.74C 277.02 280.035 280.024 277.03198 283.729 277.03198L283.729 277.03198L486.227 277.03198C 489.93198 277.03198 492.935 280.03497 492.935 283.74L492.935 283.74L492.935 486.138C 492.935 489.844 489.932 492.847 486.227 492.847zM290.437 479.431L479.519 479.431L479.519 290.448L290.437 290.448L290.437 479.431z" stroke="none" fill="#000000" fill-rule="nonzero" />
					</g>
					<g>
                        <path d="M486.227 235.922L283.729 235.922C 280.02402 235.922 277.02 232.91899 277.02 229.21399L277.02 229.21399L277.02 26.814C 277.02 23.109 280.024 20.105999 283.729 20.105999L283.729 20.105999L486.227 20.105999C 489.93198 20.105999 492.935 23.109 492.935 26.814L492.935 26.814L492.935 229.213C 492.935 232.919 489.932 235.922 486.227 235.922zM290.437 222.506L479.519 222.506L479.519 33.522L290.437 33.522L290.437 222.506z" stroke="none" fill="#000000" fill-rule="nonzero" />
					</g>
					<g>
                        <path d="M229.222 492.847L26.722 492.847C 23.017 492.847 20.014 489.844 20.014 486.13898L20.014 486.13898L20.014 283.74C 20.014 280.035 23.017 277.03198 26.722 277.03198L26.722 277.03198L229.222 277.03198C 232.927 277.03198 235.93 280.03497 235.93 283.74L235.93 283.74L235.93 486.138C 235.93 489.844 232.927 492.847 229.222 492.847zM33.431 479.431L222.51399 479.431L222.51399 290.448L33.431 290.448L33.431 479.431z" stroke="none" fill="#000000" fill-rule="nonzero" />
					</g>
				</g>
			</g>
			<g>
			</g>
		</g>
	</g>
</g>
</svg>