<?xml version="1.0" encoding="iso-8859-1"?>
<!-- Generator: Adobe Illustrator 18.0.0, SVG Export Plug-In . SVG Version: 6.00 Build 0)  -->
<!DOCTYPE svg PUBLIC "-//W3C//DTD SVG 1.1//EN" "http://www.w3.org/Graphics/SVG/1.1/DTD/svg11.dtd">
<svg width="22" height="22" version="1.1" id="Capa_1" xmlns="http://www.w3.org/2000/svg" xmlns:xlink="http://www.w3.org/1999/xlink" x="0px" y="0px"
	 viewBox="0 0 452.118 452.118" style="enable-background:new 0 0 452.118 452.118;" xml:space="preserve">
<g>
	<path d="M445.618,228.059h-42.029l27.986-43.14c1.954-3.012,1.096-7.037-1.916-8.991c-3.011-1.953-7.036-1.097-8.99,1.916
		l-32.576,50.215h-70.124c-2.758-63.71-45.818-114.503-98.357-114.503c-46.697,0-86.652,40.321-96.29,95.396
		C95.139,188.996,75.1,164.417,70.731,143.56c-1.033-4.947-4.933-8.683-9.936-9.518c-4.923-0.823-9.735,1.366-12.333,5.579
		c-0.116,0.18-0.21,0.344-0.287,0.487c-8.978,15.282-11.588,33.751-7.811,52.788c-4.686-4.875-8.418-9.9-10.996-14.962
		c-2.297-4.498-7.044-7.077-12.088-6.572c-5.022,0.502-9.144,3.953-10.5,8.801l-0.047,0.17c-7.67,27.815,2.96,57.899,27.076,81.47
		c-5.247-2.475-9.847-5.33-13.638-8.552c-3.893-3.31-9.313-3.891-13.809-1.481c-4.399,2.358-6.863,7.083-6.276,12.036l0.034,0.276
		c2.977,23.833,18.146,44.562,42.713,58.368c18.833,10.583,41.506,16.112,65.323,16.111c6.442,0,12.972-0.405,19.526-1.223
		c15.844-1.979,30.252-5.563,42.955-10.496c14.35,7.672,31.206,11.714,48.975,11.714c26.114,0,49.632-8.628,66.982-24.424
		c16.946,15.588,39.94,24.427,67.025,24.427c58.916,0,98.5-41.794,98.5-104C452.118,230.969,449.208,228.059,445.618,228.059z
		 M201.131,133.386c0,0.477-2,2.5-6,2.5c-3.508,0-5.476-1.555-5.908-2.259c2.088-1.007,4.215-1.91,6.375-2.711
		C199.273,131.07,201.131,132.928,201.131,133.386z M58.478,148.293c6.823,27.703,34.615,58.748,73.153,81.524
		c5.804,3.431,11.739,6.585,17.72,9.443c-11.44-1.094-23.344-3.269-35.181-6.533c-21.135-5.828-40.349-14.535-55.472-24.706
		C49.283,186.399,49.208,165.329,58.478,148.293z M18.775,185.698c13.817,24.958,48.768,47.656,91.939,59.561
		c25.456,7.019,50.757,9.346,72.299,6.999c-17.343,9.278-39.579,16.046-63.58,19.043c-17.989,2.247-35.528,2.171-51.167,0.042
		C31.146,250.411,11.504,216.34,18.775,185.698z M126.07,324.438c-6.041,0.754-12.002,1.119-17.853,1.119
		c-48.646-0.002-89.124-25.219-94.918-61.129c17.494,13.904,46.433,21.562,79.504,21.561c9.147,0,18.618-0.586,28.242-1.788
		c38.46-4.803,73.083-18.973,92.615-37.904c0.833-0.807,1.434-1.822,1.742-2.94l8.254-29.935c0.125-0.451,0.418-0.698,0.643-0.825
		c0.225-0.127,0.587-0.252,1.038-0.129c0.452,0.125,0.698,0.418,0.826,0.643c0.127,0.225,0.253,0.587,0.128,1.039l-8.253,29.934
		c-0.222,0.805-0.287,1.645-0.191,2.474C222.372,285.72,185.489,317.018,126.07,324.438z M186.226,319.658
		c30.792-16.725,47.64-42.91,44.672-73.306l7.926-28.745c1.021-3.7,0.539-7.575-1.355-10.913s-4.976-5.737-8.676-6.757
		c-3.698-1.02-7.573-0.538-10.912,1.356c-3.337,1.895-5.737,4.976-6.757,8.675l-6.696,24.284
		c-5.832,2.145-12.449,3.698-19.642,4.659c-15.306-4.323-31.365-11.316-46.541-20.285c-1.001-0.592-1.993-1.192-2.979-1.797
		c4.349-33.207,20.613-60.969,42.775-76.6c3.049,5.164,9.469,8.657,17.09,8.657c10.654,0,19-6.808,19-15.5
		c0-2.316-0.607-4.49-1.678-6.445c2.363-0.25,4.75-0.385,7.158-0.385c45.418,0,82.671,44.965,85.34,101.503h-43.334
		c-3.59,0-6.5,2.91-6.5,6.5c0,28.228,8.152,52.252,22.562,70.076c-14.939,13.52-35.312,20.921-58.069,20.921
		C207.771,325.556,196.444,323.532,186.226,319.658z M414.1,302.402c-15.095,14.933-36.575,23.157-60.482,23.157
		c-23.908,0-45.388-8.224-60.482-23.157c-15.092-14.93-23.623-36.04-24.86-61.343h170.686
		C437.723,266.361,429.192,287.471,414.1,302.402z"/>
	<path d="M234.036,135.066c-10.654,0-19,6.808-19,15.5s8.346,15.5,19,15.5s19-6.808,19-15.5S244.69,135.066,234.036,135.066z
		 M234.036,153.066c-4,0-6-2.023-6-2.5s2-2.5,6-2.5s6,2.023,6,2.5S238.036,153.066,234.036,153.066z"/>
</g>
<g>
</g>
<g>
</g>
<g>
</g>
<g>
</g>
<g>
</g>
<g>
</g>
<g>
</g>
<g>
</g>
<g>
</g>
<g>
</g>
<g>
</g>
<g>
</g>
<g>
</g>
<g>
</g>
<g>
</g>
</svg>
