<?xml version="1.0" encoding="UTF-8" standalone="no"?> <svg xmlns="http://www.w3.org/2000/svg" viewBox="0 0 512 512"><title>My_order</title><g id="My_order"><path d="M424.2246,48H129.834a7.9979,7.9979,0,0,0-8,8V354.4609a134.7167,134.7167,0,0,1-39.7148,95.8829A7.9993,7.9993,0,0,0,87.7754,464H382.17a8.0011,8.0011,0,0,0,5.6563-2.3437,150.6035,150.6035,0,0,0,44.3984-107.1954V56A7.9979,7.9979,0,0,0,424.2246,48Zm-8,306.4609A134.68,134.68,0,0,1,378.8027,448H105.5645a150.4468,150.4468,0,0,0,32.27-93.5391V64H416.2246Z"/><path d="M185.2715,164.7656H368.7871a8,8,0,0,0,0-16H185.2715a8,8,0,0,0,0,16Z"/><path d="M185.2715,218.9688H368.7871a8,8,0,0,0,0-16H185.2715a8,8,0,0,0,0,16Z"/><path d="M185.2715,273.1719H368.7871a8,8,0,0,0,0-16H185.2715a8,8,0,0,0,0,16Z"/><path d="M185.2715,327.375H368.7871a8,8,0,0,0,0-16H185.2715a8,8,0,0,0,0,16Z"/></g></svg>